<?xml version="1.0" standalone="no"?>
<!DOCTYPE svg PUBLIC "-//W3C//DTD SVG 20010904//EN"
 "http://www.w3.org/TR/2001/REC-SVG-20010904/DTD/svg10.dtd">
<svg version="1.0" xmlns="http://www.w3.org/2000/svg"
 width="865.000000pt" height="705.000000pt" viewBox="0 0 865.000000 705.000000"
 preserveAspectRatio="xMidYMid meet">

<g transform="translate(0.000000,705.000000) scale(0.100000,-0.100000)"
fill="#000000" stroke="none">
<path d="M643 6490 c-21 -3 -55 -28 -107 -78 l-76 -72 0 -1093 0 -1092 80 -80
79 -79 317 1 317 1 73 76 74 76 0 473 c0 425 2 480 19 550 l18 77 -248 0
c-194 0 -249 -3 -249 -13 0 -16 60 -289 66 -298 2 -4 22 -5 44 -2 l40 6 0
-301 c0 -260 -2 -303 -16 -316 -12 -13 -40 -16 -144 -16 -113 0 -130 2 -139
18 -5 10 -10 380 -12 926 -3 882 -3 909 16 922 14 10 53 14 147 14 116 0 128
-2 138 -19 16 -31 12 -145 -9 -221 l-20 -70 193 0 192 0 -17 70 c-13 50 -19
121 -22 236 l-3 165 -70 68 -69 69 -290 4 c-159 2 -304 1 -322 -2z"/>
<path d="M2404 6492 c-11 -2 -53 -35 -92 -75 l-71 -72 -2 -1099 -1 -1098 76
-77 76 -77 315 1 314 0 76 75 75 74 0 1101 0 1101 -72 71 -73 71 -300 4 c-165
2 -309 2 -321 0z m442 -326 c12 -17 14 -159 14 -919 0 -600 -3 -905 -10 -918
-10 -17 -22 -19 -144 -19 -95 0 -137 4 -144 13 -12 15 -20 1815 -8 1835 15 25
52 32 164 29 99 -2 115 -4 128 -21z"/>
<path d="M1647 6458 c3 -18 11 -42 17 -53 8 -14 12 -339 14 -1124 2 -1081 2
-1106 -18 -1182 -31 -120 -48 -109 170 -108 105 1 190 4 190 8 0 3 -9 40 -20
81 -19 72 -20 114 -20 1180 0 943 2 1113 15 1160 8 30 15 58 15 63 0 4 -83 7
-185 7 l-184 0 6 -32z"/>
<path d="M3320 6487 c0 -2 15 -48 34 -103 25 -72 43 -155 65 -304 16 -113 46
-304 65 -425 19 -121 74 -463 121 -760 47 -297 93 -584 102 -637 14 -87 14
-107 1 -178 -8 -45 -11 -83 -6 -86 5 -3 101 -4 213 -2 151 2 204 6 201 15 -3
6 -10 47 -17 90 -11 70 -10 93 10 204 21 123 77 480 125 799 14 91 46 296 71
455 25 160 59 385 75 500 18 124 42 247 59 300 16 50 32 100 35 113 l7 22
-186 0 -187 0 9 -32 c12 -50 8 -120 -16 -268 -12 -74 -38 -241 -57 -370 -19
-129 -50 -341 -69 -470 -20 -129 -42 -284 -50 -344 -14 -102 -20 -126 -28
-115 -2 2 -27 168 -56 369 -50 351 -107 735 -149 1000 -14 90 -18 139 -11 170
4 25 8 48 9 53 0 4 -83 7 -185 7 -102 0 -185 -1 -185 -3z"/>
<path d="M4953 6473 c29 -105 29 -112 -8 -313 -33 -180 -74 -416 -265 -1529
-51 -299 -81 -444 -106 -520 -18 -58 -34 -109 -34 -113 0 -5 85 -8 190 -6 118
2 190 7 190 13 0 6 -5 28 -11 50 -9 33 -5 77 27 279 28 174 43 245 57 263 18
22 23 23 167 23 144 0 150 -1 164 -22 21 -32 99 -474 92 -518 -3 -19 -8 -47
-12 -62 l-6 -28 191 0 c105 0 191 4 191 8 0 4 -16 55 -35 113 -20 58 -49 179
-65 274 -16 94 -52 301 -80 460 -28 160 -64 367 -80 460 -67 390 -120 690
-150 850 -31 166 -34 221 -14 308 l6 27 -207 0 c-192 0 -206 -1 -202 -17z
m240 -1031 c15 -92 39 -235 54 -318 14 -83 23 -159 20 -168 -5 -13 -23 -16
-104 -16 -54 0 -104 4 -112 9 -9 6 -12 19 -9 37 41 231 88 512 94 562 4 35 11
62 18 62 7 0 22 -67 39 -168z"/>
<path d="M5927 6428 c14 -55 15 -203 13 -1186 -1 -924 -4 -1131 -16 -1175 -7
-28 -14 -58 -14 -65 0 -10 42 -12 191 -11 137 1 189 5 186 13 -3 6 -12 45 -21
86 -14 64 -16 168 -19 718 -1 353 1 642 5 642 10 0 17 -28 259 -950 32 -124
76 -288 96 -365 l38 -140 173 -1 c128 -1 172 2 172 11 0 6 -7 34 -16 61 -14
43 -17 178 -21 1160 -4 987 -3 1117 11 1171 26 101 41 93 -167 93 l-183 0 17
-67 c16 -61 18 -131 18 -720 1 -376 -3 -653 -8 -653 -5 0 -12 12 -15 28 -14
59 -121 469 -181 692 -63 236 -184 684 -191 708 -2 9 -46 12 -173 12 l-169 0
15 -62z"/>
<path d="M7529 6471 c25 -46 23 -144 -4 -286 -15 -77 -44 -241 -65 -365 -21
-124 -57 -331 -79 -460 -38 -217 -81 -472 -161 -938 -27 -160 -63 -302 -98
-393 -6 -15 -8 -30 -5 -33 4 -3 89 -6 189 -6 l183 0 -5 78 c-5 61 0 111 24
242 17 91 33 188 37 217 4 34 14 58 29 72 21 20 32 21 166 19 179 -4 168 7
205 -213 15 -88 33 -195 42 -238 13 -69 13 -82 0 -122 -9 -25 -12 -47 -8 -49
4 -3 92 -5 195 -5 141 0 187 3 183 12 -30 79 -78 252 -91 327 -86 496 -130
751 -156 895 -16 94 -48 278 -70 410 -36 214 -60 346 -116 635 -15 77 -15 91
-1 153 l15 67 -209 0 c-201 0 -209 -1 -200 -19z m215 -888 c3 -16 15 -84 26
-153 11 -69 34 -203 51 -299 26 -143 29 -175 18 -182 -8 -5 -58 -9 -112 -9
-82 0 -99 3 -104 17 -4 9 1 57 10 107 8 50 33 193 54 319 21 125 41 227 45
227 3 0 9 -12 12 -27z"/>
<path d="M507 3742 l-67 -68 0 -923 0 -923 67 -69 66 -69 263 0 263 0 64 63
65 62 5 150 c3 85 11 173 19 203 l15 52 -146 1 c-80 0 -154 2 -163 4 -22 4
-22 -8 -3 -71 18 -59 20 -165 3 -182 -16 -16 -220 -16 -236 0 -18 18 -17 1553
1 1565 6 4 57 8 112 9 126 2 135 -4 135 -90 0 -34 -7 -83 -15 -110 -8 -27 -15
-53 -15 -58 0 -4 70 -8 155 -8 119 0 157 3 161 13 2 7 -2 42 -11 78 -9 39 -15
113 -15 188 l0 123 -67 64 -68 64 -260 0 -261 0 -67 -68z"/>
<path d="M1706 3783 c3 -16 10 -42 14 -59 8 -32 -6 -122 -95 -634 -20 -113
-53 -308 -75 -435 -106 -626 -132 -767 -160 -856 -16 -53 -30 -99 -30 -103 0
-3 72 -6 160 -6 l160 0 -1 28 c0 15 -4 36 -8 46 -4 11 -2 49 5 85 7 36 22 127
34 201 13 82 28 142 37 153 14 14 35 17 139 17 l123 0 15 -27 c7 -16 28 -113
46 -217 26 -154 31 -198 23 -233 -6 -23 -8 -45 -5 -48 7 -7 307 -6 314 1 4 3
-7 44 -23 92 -15 48 -38 141 -49 207 -11 66 -34 197 -51 290 -17 94 -52 298
-79 455 -26 157 -67 391 -90 520 -78 437 -76 419 -55 518 l8 32 -182 0 -181 0
6 -27z m223 -986 c24 -139 41 -264 39 -278 -3 -22 -8 -24 -68 -27 -35 -2 -75
0 -87 3 -28 7 -29 26 -8 140 36 194 65 372 65 393 0 12 4 22 8 22 4 0 27 -114
51 -253z"/>
<path d="M2514 3793 c23 -77 26 -175 26 -1048 0 -768 -3 -949 -14 -992 -8 -28
-11 -54 -8 -57 7 -8 307 -8 314 0 3 3 -1 29 -8 59 -11 42 -14 136 -12 452 l3
398 54 3 c30 2 58 -1 63 -6 5 -5 29 -151 53 -323 25 -173 50 -348 56 -389 9
-57 9 -88 0 -128 -6 -30 -9 -58 -5 -63 6 -10 307 -13 317 -3 3 3 -1 25 -9 47
-9 23 -20 65 -25 92 -14 72 -109 744 -109 770 0 13 24 45 65 84 l65 63 0 462
0 462 -68 67 -68 67 -347 0 c-327 0 -348 -1 -343 -17z m537 -263 c18 -10 19
-24 19 -320 0 -296 -1 -310 -19 -320 -28 -14 -214 -13 -229 2 -17 17 -17 619
0 636 15 15 201 16 229 2z"/>
<path d="M3520 3798 c1 -7 7 -40 15 -73 22 -91 22 -1874 0 -1958 -8 -32 -15
-62 -15 -67 0 -13 307 -13 314 -1 4 5 -1 39 -9 75 -13 55 -15 161 -13 693 3
628 3 628 22 578 149 -396 229 -605 240 -630 13 -30 14 -30 82 -27 l69 3 42
107 c23 59 80 204 127 322 46 118 90 228 96 244 6 16 12 27 13 25 2 -2 0 -294
-4 -649 -6 -536 -10 -653 -22 -692 -9 -25 -13 -49 -10 -52 8 -8 308 -8 315 0
3 3 0 29 -8 57 -11 43 -14 224 -14 992 0 873 3 971 26 1048 5 16 -6 17 -144
17 l-150 0 -20 -57 c-11 -32 -63 -168 -116 -303 -54 -135 -120 -305 -148 -378
-28 -73 -52 -131 -53 -130 -2 2 -36 86 -76 188 -40 102 -117 295 -170 430
l-97 245 -146 3 c-113 2 -146 0 -146 -10z"/>
<path d="M5234 3793 c29 -103 33 -60 -38 -473 -14 -80 -50 -289 -80 -465 -30
-176 -66 -385 -80 -465 -14 -80 -39 -226 -56 -325 -17 -99 -41 -214 -54 -255
-13 -41 -27 -85 -30 -97 l-7 -23 161 0 161 0 -7 58 c-4 40 0 93 14 172 12 63
26 147 33 185 19 116 18 115 164 115 118 0 125 -1 139 -22 23 -37 78 -392 70
-455 l-6 -53 161 0 c88 0 161 2 161 5 0 3 -13 46 -29 97 -17 51 -39 143 -50
203 -44 245 -73 409 -101 575 -16 96 -48 279 -70 405 -123 694 -124 703 -104
803 l7 32 -182 0 c-169 0 -182 -1 -177 -17z m211 -908 c14 -88 34 -207 45
-264 15 -78 18 -107 9 -117 -12 -15 -113 -19 -158 -7 -28 7 -28 0 18 268 38
219 52 288 56 283 2 -2 16 -76 30 -163z"/>
<path d="M6064 3763 c-3 -27 -14 -93 -24 -148 -10 -55 -17 -101 -16 -103 2 -1
35 4 75 13 90 19 446 22 435 4 -4 -6 -19 -53 -34 -103 -16 -50 -65 -208 -110
-351 -392 -1247 -351 -1100 -348 -1253 l3 -127 378 -3 c207 -1 377 1 377 5 0
5 11 71 24 148 13 77 23 141 22 141 0 1 -32 -4 -71 -12 -69 -13 -435 -20 -435
-8 0 3 36 121 81 262 151 479 207 656 307 977 l101 320 3 140 3 140 -382 3
-382 2 -7 -47z"/>
<path d="M6996 3783 c3 -16 10 -44 15 -63 5 -19 9 -449 9 -970 -1 -753 -3
-946 -14 -992 -8 -31 -11 -59 -8 -62 3 -3 75 -6 160 -6 l154 0 -7 38 c-5 20
-10 467 -12 993 -3 791 -1 967 11 1022 l14 67 -164 0 -164 0 6 -27z"/>
<path d="M7564 3738 l-69 -73 5 -922 5 -921 64 -66 63 -66 263 0 263 0 66 68
66 67 0 925 0 926 -68 67 -68 67 -260 0 -261 0 -69 -72z m444 -210 c17 -17 17
-1539 0 -1556 -8 -8 -49 -12 -120 -12 -96 0 -108 2 -118 19 -7 13 -10 273 -10
772 0 686 1 754 17 771 14 15 32 18 118 18 65 0 105 -4 113 -12z"/>
<path d="M3050 1285 c-120 -31 -232 -86 -261 -126 -27 -39 -32 -102 -7 -107
13 -2 16 2 13 21 -8 42 33 88 115 129 102 50 212 71 353 67 97 -4 117 -7 151
-28 41 -26 66 -71 66 -121 0 -25 -12 -44 -58 -90 -49 -49 -70 -62 -128 -80
-80 -25 -203 -43 -260 -38 l-39 3 0 135 c0 112 -3 135 -15 138 -13 2 -15 -20
-17 -147 -2 -146 -22 -320 -42 -373 -6 -15 -27 -45 -47 -68 -38 -42 -40 -56
-5 -45 50 16 94 111 113 247 l11 78 66 0 c79 0 231 30 293 58 92 40 158 124
158 199 0 58 -29 102 -91 137 -50 29 -62 31 -164 33 -91 3 -127 -1 -205 -22z"/>
<path d="M4115 1267 c-4 -13 -5 -39 -4 -58 1 -19 2 -57 1 -86 l-2 -52 -47 -3
c-37 -2 -49 -7 -51 -21 -3 -16 2 -17 49 -11 l52 7 -6 -54 c-4 -30 -7 -90 -7
-134 l0 -81 -49 -53 c-31 -33 -55 -52 -66 -49 -29 5 -53 48 -79 138 -27 92
-53 125 -92 116 -17 -5 -23 -1 -28 19 -4 14 -18 32 -31 41 -24 16 -27 15 -45
-1 -27 -25 -25 -50 7 -73 l27 -20 -33 -67 c-18 -36 -30 -69 -26 -73 9 -9 30
20 66 91 26 50 33 57 59 57 34 0 42 -11 71 -107 52 -168 96 -193 180 -102 l48
50 21 -41 c44 -85 136 -88 215 -6 22 23 59 77 82 121 l42 80 1 -95 c0 -77 4
-101 20 -127 11 -18 27 -33 35 -33 29 0 74 29 92 60 9 16 21 30 25 30 4 0 8
-78 9 -172 1 -176 6 -222 24 -216 6 2 10 62 10 153 l0 149 46 -3 c58 -3 122
22 155 62 25 30 27 31 40 12 31 -44 58 -65 95 -76 50 -15 119 9 150 53 62 86
16 240 -81 269 -34 10 -44 9 -86 -12 -62 -31 -83 -62 -93 -134 -7 -49 -14 -64
-44 -91 -65 -60 -178 -69 -185 -15 -7 44 8 87 49 141 75 99 134 236 145 332 5
48 4 62 -11 78 -29 33 -64 25 -111 -24 -63 -66 -104 -218 -104 -385 0 -49 -5
-64 -34 -105 -18 -26 -43 -54 -56 -63 -20 -14 -23 -14 -38 1 -14 13 -18 42
-20 146 -5 170 -15 175 -83 35 -84 -171 -173 -234 -244 -172 -34 30 -47 111
-39 245 l7 103 29 -6 c15 -3 42 -8 58 -11 40 -8 42 23 3 32 -16 3 -41 9 -57
13 l-28 6 -2 104 c-1 72 -5 106 -13 108 -7 3 -15 -6 -18 -20z m725 -32 c15
-18 -1 -101 -41 -205 -29 -75 -92 -180 -108 -180 -10 0 -5 91 10 190 12 77 50
161 86 190 31 24 37 25 53 5z m-1080 -275 c0 -5 -4 -10 -9 -10 -6 0 -13 5 -16
10 -3 6 1 10 9 10 9 0 16 -4 16 -10z m1351 -40 c27 -15 59 -83 59 -127 0 -43
-28 -96 -61 -113 -34 -19 -107 -6 -136 23 -51 51 -39 171 21 208 34 21 86 25
117 9z"/>
<path d="M5323 1235 c-46 -32 -84 -187 -84 -345 0 -58 -4 -111 -8 -119 -9 -13
12 -52 59 -113 18 -23 29 -28 64 -28 78 0 162 76 219 197 l32 68 5 -100 c5
-109 17 -141 55 -151 29 -7 74 22 95 60 7 14 16 26 19 26 3 0 16 -15 28 -34
31 -49 99 -73 155 -57 79 24 119 97 103 189 -14 85 -68 136 -142 134 -77 -1
-137 -64 -149 -156 -6 -43 -14 -58 -51 -96 l-45 -45 -19 24 c-16 20 -19 40
-19 146 0 97 -3 124 -14 128 -17 7 -28 -6 -46 -53 -44 -117 -134 -230 -194
-246 -40 -10 -74 3 -91 36 -23 44 -19 67 24 150 88 171 126 344 83 383 -23 21
-51 22 -79 2z m62 -36 c15 -47 -21 -188 -81 -314 l-29 -60 -3 64 c-5 105 21
238 58 299 23 37 46 42 55 11z m588 -280 c38 -17 57 -60 57 -127 0 -82 -25
-113 -96 -119 -43 -5 -54 -2 -82 22 -54 46 -61 124 -17 192 27 40 89 55 138
32z"/>
<path d="M5120 1126 c-54 -40 -86 -74 -77 -83 8 -8 150 90 149 103 -2 20 -29
12 -72 -20z"/>
<path d="M4457 1098 c-7 -23 5 -48 23 -48 20 0 36 33 25 50 -9 14 -43 12 -48
-2z"/>
<path d="M5597 1098 c-7 -23 5 -48 23 -48 20 0 36 33 25 50 -9 14 -43 12 -48
-2z"/>
<path d="M3490 962 c-70 -12 -126 -99 -118 -183 9 -86 67 -143 147 -143 56 0
93 20 122 67 27 43 23 153 -7 194 -39 52 -89 75 -144 65z m88 -48 c72 -50 69
-200 -5 -233 -82 -38 -173 22 -173 113 0 42 29 101 58 119 34 21 91 22 120 1z"/>
</g>
</svg>
